<svg width="24" height="24" viewBox="0 0 24 24" fill="none" xmlns="http://www.w3.org/2000/svg">
<path d="M21.6382 6.66439L22.0813 6.21657C22.9704 5.31809 23.0352 3.94029 22.227 3.14056L20.5175 1.44895C19.7093 0.649212 18.3323 0.728593 17.4432 1.62707L17.0001 2.07489" stroke="#FF5071" stroke-width="1.5" stroke-linecap="round" stroke-linejoin="round"/>
<path d="M2.05321 6.66439L1.61009 6.21657C0.721025 5.31809 0.656158 3.94029 1.46436 3.14056L3.17389 1.44895C3.98209 0.649212 5.35914 0.728593 6.2482 1.62707L6.69133 2.07489" stroke="#FF5071" stroke-width="1.5" stroke-linecap="round" stroke-linejoin="round"/>
<path fill-rule="evenodd" clip-rule="evenodd" d="M16.3347 2.75021H7.6657C4.6447 2.75021 2.7507 4.88921 2.7507 7.91621V16.0842C2.7507 19.1112 4.6347 21.2502 7.6657 21.2502H16.3337C19.3647 21.2502 21.2507 19.1112 21.2507 16.0842V7.91621C21.2507 4.88921 19.3647 2.75021 16.3347 2.75021Z" stroke="white" stroke-width="1.5" stroke-linecap="round" stroke-linejoin="round"/>
<path d="M15.3913 14.0177L12.0003 11.9947V7.63373" stroke="#FF5071" stroke-width="1.5" stroke-linecap="round" stroke-linejoin="round"/>
</svg>
