<svg width="38" height="28" viewBox="0 0 38 28" fill="none" xmlns="http://www.w3.org/2000/svg">
<path fill-rule="evenodd" clip-rule="evenodd" d="M31.9569 12.0861C31.9569 15.7573 28.9808 18.7335 25.3096 18.7335C21.6384 18.7335 18.6623 15.7573 18.6623 12.0861C18.6623 8.4149 21.6384 5.43879 25.3096 5.43879C28.9808 5.43879 31.9569 8.4149 31.9569 12.0861Z" stroke="white" stroke-width="2.26493"/>
<g clip-path="url(#clip0_204_16)">
<line x1="36.2582" y1="12.6194" x2="34.9074" y2="12.6194" stroke="#F25022" stroke-width="2.26493" stroke-linecap="round" stroke-linejoin="round"/>
</g>
<g clip-path="url(#clip1_204_16)">
<line x1="15.7119" y1="12.6194" x2="14.3611" y2="12.6194" stroke="#F25022" stroke-width="2.26493" stroke-linecap="round" stroke-linejoin="round"/>
</g>
<g clip-path="url(#clip2_204_16)">
<line x1="36.2582" y1="12.6194" x2="34.9074" y2="12.6194" stroke="white" stroke-width="2.26493" stroke-linecap="round" stroke-linejoin="round"/>
</g>
<g clip-path="url(#clip3_204_16)">
<line x1="15.7119" y1="12.6194" x2="14.3611" y2="12.6194" stroke="white" stroke-width="2.26493" stroke-linecap="round" stroke-linejoin="round"/>
</g>
<g clip-path="url(#clip4_204_16)">
<line x1="34.5246" y1="18.0221" x2="33.3548" y2="17.3467" stroke="white" stroke-width="2.26493" stroke-linecap="round" stroke-linejoin="round"/>
</g>
<g clip-path="url(#clip5_204_16)">
<line x1="30.3223" y1="21.8347" x2="29.6469" y2="20.6648" stroke="white" stroke-width="2.26493" stroke-linecap="round" stroke-linejoin="round"/>
</g>
<g clip-path="url(#clip6_204_16)">
<line x1="20.0491" y1="4.04104" x2="19.3738" y2="2.87122" stroke="white" stroke-width="2.26493" stroke-linecap="round" stroke-linejoin="round"/>
</g>
<g clip-path="url(#clip7_204_16)">
<line x1="24.7764" y1="23.0347" x2="24.7764" y2="21.6839" stroke="white" stroke-width="2.26493" stroke-linecap="round" stroke-linejoin="round"/>
</g>
<line x1="24.7764" y1="2.48831" x2="24.7764" y2="1.13751" stroke="white" stroke-width="2.26493" stroke-linecap="round" stroke-linejoin="round"/>
<g clip-path="url(#clip8_204_16)">
<line x1="19.3737" y1="21.3014" x2="20.0491" y2="20.1316" stroke="white" stroke-width="2.26493" stroke-linecap="round" stroke-linejoin="round"/>
</g>
<g clip-path="url(#clip9_204_16)">
<line x1="30.6133" y1="3.93446" x2="31.2887" y2="2.76464" stroke="white" stroke-width="2.26493" stroke-linecap="round" stroke-linejoin="round"/>
</g>
<g clip-path="url(#clip10_204_16)">
<line x1="15.5614" y1="17.0985" x2="16.7313" y2="16.4231" stroke="white" stroke-width="2.26493" stroke-linecap="round" stroke-linejoin="round"/>
</g>
<g clip-path="url(#clip11_204_16)">
<line x1="33.3551" y1="6.82514" x2="34.5249" y2="6.14975" stroke="white" stroke-width="2.26493" stroke-linecap="round" stroke-linejoin="round"/>
</g>
<path d="M31.3526 12.0861C31.3526 15.4235 28.647 18.1291 25.3095 18.1291C21.9721 18.1291 19.2665 15.4235 19.2665 12.0861C19.2665 8.74859 21.9721 6.04303 25.3095 6.04303C28.647 6.04303 31.3526 8.74859 31.3526 12.0861Z" fill="#FF5071"/>
<path fill-rule="evenodd" clip-rule="evenodd" d="M16.7362 10.3119C16.7362 10.3119 16.8476 10.8775 16.8856 10.8829C18.9364 11.1754 20.4752 12.3717 20.4752 14.5033C20.4752 16.8396 18.5813 18.7335 16.2451 18.7335H5.36763C3.0314 18.7335 1.13751 16.8396 1.13751 14.5033C1.13751 12.3717 2.71427 10.6082 4.76512 10.3158C4.80312 10.3104 4.84035 10.3092 4.87648 10.3119C5.42134 7.53433 7.86912 5.43879 10.8064 5.43879C13.7436 5.43879 16.1914 7.53433 16.7362 10.3119Z" fill="#F3F3F3"/>
<path d="M5.68755 18.7335C3.17463 18.7335 1.13751 16.7494 1.13751 14.3019C1.13751 12.1641 2.69167 10.3799 4.75956 9.96259C5.47045 7.35796 7.90829 5.43879 10.8064 5.43879C14.0826 5.43879 16.7706 7.89149 17.0404 11.0145C18.9806 11.2739 20.4752 12.8949 20.4752 14.8558C20.4752 16.9974 18.6927 18.7335 16.4939 18.7335H5.68755Z" stroke="#1C232D" stroke-width="2.26493" stroke-linecap="round" stroke-linejoin="round"/>
<path fill-rule="evenodd" clip-rule="evenodd" d="M25.9642 15.3612C25.9642 15.3612 26.1126 16.1153 26.1633 16.1225C28.8978 16.5124 30.9495 18.1075 30.9495 20.9497C30.9495 24.0647 28.4243 26.5899 25.3093 26.5899H10.806C7.69106 26.5899 5.16587 24.0647 5.16587 20.9497C5.16587 18.1075 7.26823 15.7563 10.0027 15.3663C10.0534 15.3591 10.103 15.3576 10.1512 15.3612C10.8776 11.6577 14.1414 8.86365 18.0577 8.86365C21.974 8.86365 25.2377 11.6577 25.9642 15.3612Z" fill="#F3F3F3"/>
<path d="M11.2326 26.5899C7.88204 26.5899 5.16587 23.9444 5.16587 20.6811C5.16587 17.8308 7.23809 15.4518 9.99528 14.8954C10.9431 11.4225 14.1936 8.86365 18.0577 8.86365C22.426 8.86365 26.01 12.1339 26.3697 16.2979C28.9567 16.6438 30.9495 18.8051 30.9495 21.4197C30.9495 24.2751 28.5728 26.5899 25.6411 26.5899H11.2326Z" stroke="#1C232D" stroke-width="2.26493" stroke-linecap="round" stroke-linejoin="round"/>
<defs>
<clipPath id="clip0_204_16">
<rect x="33.1656" y="10.8775" width="4.83442" height="2.41721" rx="1.20324" fill="white"/>
</clipPath>
<clipPath id="clip1_204_16">
<rect x="12.6193" y="10.8775" width="4.83442" height="2.41721" rx="1.20324" fill="white"/>
</clipPath>
<clipPath id="clip2_204_16">
<rect x="33.1656" y="10.8775" width="4.83442" height="2.41721" rx="1.20324" fill="white"/>
</clipPath>
<clipPath id="clip3_204_16">
<rect x="12.6193" y="10.8775" width="4.83442" height="2.41721" rx="1.20324" fill="white"/>
</clipPath>
<clipPath id="clip4_204_16">
<rect x="32.7173" y="14.9676" width="4.83442" height="2.41721" rx="1.20324" transform="rotate(30 32.7173 14.9676)" fill="white"/>
</clipPath>
<clipPath id="clip5_204_16">
<rect x="30.2844" y="18.2853" width="4.83442" height="2.41721" rx="1.20324" transform="rotate(60 30.2844 18.2853)" fill="white"/>
</clipPath>
<clipPath id="clip6_204_16">
<rect x="20.0113" y="0.491553" width="4.83442" height="2.41721" rx="1.20324" transform="rotate(60 20.0113 0.491553)" fill="white"/>
</clipPath>
<clipPath id="clip7_204_16">
<rect x="26.5182" y="19.9421" width="4.83442" height="2.41721" rx="1.20324" transform="rotate(90 26.5182 19.9421)" fill="white"/>
</clipPath>
<clipPath id="clip8_204_16">
<rect x="22.4285" y="19.4938" width="4.83442" height="2.41721" rx="1.20324" transform="rotate(120 22.4285 19.4938)" fill="white"/>
</clipPath>
<clipPath id="clip9_204_16">
<rect x="32.7016" y="1.70028" width="4.83442" height="2.41721" rx="1.20324" transform="rotate(120 32.7016 1.70028)" fill="white"/>
</clipPath>
<clipPath id="clip10_204_16">
<rect x="19.1105" y="17.0607" width="4.83442" height="2.41721" rx="1.20324" transform="rotate(150 19.1105 17.0607)" fill="white"/>
</clipPath>
<clipPath id="clip11_204_16">
<rect x="36.9041" y="6.7873" width="4.83442" height="2.41721" rx="1.20324" transform="rotate(150 36.9041 6.7873)" fill="white"/>
</clipPath>
</defs>
</svg>
