<svg width="40" height="29" viewBox="0 0 40 29" fill="none" xmlns="http://www.w3.org/2000/svg">
<path fill-rule="evenodd" clip-rule="evenodd" d="M33.0892 12.6365C33.0892 16.2915 30.1263 19.2544 26.4713 19.2544C22.8164 19.2544 19.8535 16.2915 19.8535 12.6365C19.8535 8.98159 22.8164 6.01868 26.4713 6.01868C30.1263 6.01868 33.0892 8.98159 33.0892 12.6365Z" stroke="white" stroke-width="2.26493"/>
<g clip-path="url(#clip0_1_78)">
<line x1="37.3713" y1="13.1675" x2="36.0265" y2="13.1675" stroke="#F25022" stroke-width="2.26493" stroke-linecap="round" stroke-linejoin="round"/>
</g>
<g clip-path="url(#clip1_1_78)">
<line x1="16.9161" y1="13.1675" x2="15.5713" y2="13.1675" stroke="#F25022" stroke-width="2.26493" stroke-linecap="round" stroke-linejoin="round"/>
</g>
<g clip-path="url(#clip2_1_78)">
<line x1="37.3713" y1="13.1675" x2="36.0265" y2="13.1675" stroke="white" stroke-width="2.26493" stroke-linecap="round" stroke-linejoin="round"/>
</g>
<g clip-path="url(#clip3_1_78)">
<line x1="16.9161" y1="13.1675" x2="15.5713" y2="13.1675" stroke="white" stroke-width="2.26493" stroke-linecap="round" stroke-linejoin="round"/>
</g>
<g clip-path="url(#clip4_1_78)">
<line x1="35.6455" y1="18.5462" x2="34.4809" y2="17.8738" stroke="white" stroke-width="2.26493" stroke-linecap="round" stroke-linejoin="round"/>
</g>
<g clip-path="url(#clip5_1_78)">
<line x1="31.4617" y1="22.3417" x2="30.7893" y2="21.1771" stroke="white" stroke-width="2.26493" stroke-linecap="round" stroke-linejoin="round"/>
</g>
<g clip-path="url(#clip6_1_78)">
<line x1="21.2341" y1="4.6272" x2="20.5617" y2="3.46257" stroke="white" stroke-width="2.26493" stroke-linecap="round" stroke-linejoin="round"/>
</g>
<g clip-path="url(#clip7_1_78)">
<line x1="25.9406" y1="23.5365" x2="25.9406" y2="22.1917" stroke="white" stroke-width="2.26493" stroke-linecap="round" stroke-linejoin="round"/>
</g>
<g clip-path="url(#clip8_1_78)">
<line x1="25.9406" y1="3.08129" x2="25.9406" y2="1.73649" stroke="white" stroke-width="2.26493" stroke-linecap="round" stroke-linejoin="round"/>
</g>
<g clip-path="url(#clip9_1_78)">
<line x1="20.5616" y1="21.811" x2="21.234" y2="20.6463" stroke="white" stroke-width="2.26493" stroke-linecap="round" stroke-linejoin="round"/>
</g>
<g clip-path="url(#clip10_1_78)">
<line x1="30.7892" y1="4.09647" x2="31.4616" y2="2.93184" stroke="white" stroke-width="2.26493" stroke-linecap="round" stroke-linejoin="round"/>
</g>
<g clip-path="url(#clip11_1_78)">
<line x1="16.7663" y1="17.6266" x2="17.931" y2="16.9542" stroke="white" stroke-width="2.26493" stroke-linecap="round" stroke-linejoin="round"/>
</g>
<g clip-path="url(#clip12_1_78)">
<line x1="34.4811" y1="7.39894" x2="35.6457" y2="6.72654" stroke="white" stroke-width="2.26493" stroke-linecap="round" stroke-linejoin="round"/>
</g>
<path d="M32.4876 12.6366C32.4876 15.9593 29.794 18.6528 26.4714 18.6528C23.1487 18.6528 20.4551 15.9593 20.4551 12.6366C20.4551 9.31392 23.1487 6.62036 26.4714 6.62036C29.794 6.62036 32.4876 9.31392 32.4876 12.6366Z" fill="#FF5071"/>
<path fill-rule="evenodd" clip-rule="evenodd" d="M17.936 10.8703C17.936 10.8703 18.0469 11.4333 18.0847 11.4387C20.1265 11.7299 21.6584 12.9208 21.6584 15.0431C21.6584 17.3689 19.7729 19.2544 17.447 19.2544H6.61785C4.29198 19.2544 2.40649 17.3689 2.40649 15.0431C2.40649 12.9208 3.97626 11.1653 6.01801 10.8741C6.05584 10.8687 6.09291 10.8676 6.12888 10.8703C6.67132 8.10498 9.10825 6.01874 12.0324 6.01874C14.9566 6.01874 17.3936 8.10499 17.936 10.8703Z" fill="#F3F3F3"/>
<path d="M6.93635 19.2544C4.43458 19.2544 2.40649 17.2792 2.40649 14.8425C2.40649 12.7143 3.95376 10.938 6.01248 10.5225C6.72022 7.9294 9.14724 6.01874 12.0324 6.01874C15.2941 6.01874 17.9703 8.46056 18.2388 11.5697C20.1705 11.8279 21.6584 13.4417 21.6584 15.394C21.6584 17.5261 19.8838 19.2544 17.6948 19.2544H6.93635Z" stroke="#1C232D" stroke-width="2.26493" stroke-linecap="round" stroke-linejoin="round"/>
<path fill-rule="evenodd" clip-rule="evenodd" d="M27.1231 15.897C27.1231 15.897 27.271 16.6478 27.3214 16.655C30.0437 17.0432 32.0863 18.6311 32.0863 21.4607C32.0863 24.5619 29.5723 27.0759 26.4712 27.0759H12.0323C8.9311 27.0759 6.41711 24.5619 6.41711 21.4607C6.41711 18.6311 8.51014 16.2903 11.2325 15.9021C11.2829 15.8949 11.3323 15.8934 11.3803 15.897C12.1035 12.21 15.3528 9.4283 19.2517 9.4283C23.1506 9.4283 26.3999 12.21 27.1231 15.897Z" fill="#F3F3F3"/>
<path d="M12.4569 27.0759C9.12123 27.0759 6.41711 24.4422 6.41711 21.1934C6.41711 18.3557 8.48014 15.9873 11.2251 15.4333C12.1687 11.9758 15.4048 9.4283 19.2517 9.4283C23.6006 9.4283 27.1688 12.6841 27.5269 16.8296C30.1024 17.1739 32.0863 19.3256 32.0863 21.9287C32.0863 24.7714 29.7202 27.0759 26.8015 27.0759H12.4569Z" stroke="#1C232D" stroke-width="2.26493" stroke-linecap="round" stroke-linejoin="round"/>
<defs>
<clipPath id="clip0_1_78">
<rect x="34.2924" y="11.4333" width="4.81298" height="2.40649" rx="1.20324" fill="white"/>
</clipPath>
<clipPath id="clip1_1_78">
<rect x="13.8372" y="11.4333" width="4.81298" height="2.40649" rx="1.20324" fill="white"/>
</clipPath>
<clipPath id="clip2_1_78">
<rect x="34.2924" y="11.4333" width="4.81298" height="2.40649" rx="1.20324" fill="white"/>
</clipPath>
<clipPath id="clip3_1_78">
<rect x="13.8372" y="11.4333" width="4.81298" height="2.40649" rx="1.20324" fill="white"/>
</clipPath>
<clipPath id="clip4_1_78">
<rect x="33.8462" y="15.5053" width="4.81298" height="2.40649" rx="1.20324" transform="rotate(30 33.8462 15.5053)" fill="white"/>
</clipPath>
<clipPath id="clip5_1_78">
<rect x="31.4239" y="18.8081" width="4.81298" height="2.40649" rx="1.20324" transform="rotate(60 31.4239 18.8081)" fill="white"/>
</clipPath>
<clipPath id="clip6_1_78">
<rect x="21.1964" y="1.09345" width="4.81298" height="2.40649" rx="1.20324" transform="rotate(60 21.1964 1.09345)" fill="white"/>
</clipPath>
<clipPath id="clip7_1_78">
<rect x="27.6746" y="20.4576" width="4.81298" height="2.40649" rx="1.20324" transform="rotate(90 27.6746 20.4576)" fill="white"/>
</clipPath>
<clipPath id="clip8_1_78">
<rect x="27.6746" y="0.00245667" width="4.81298" height="2.40649" rx="1.20324" transform="rotate(90 27.6746 0.00245667)" fill="white"/>
</clipPath>
<clipPath id="clip9_1_78">
<rect x="23.6028" y="20.0114" width="4.81298" height="2.40649" rx="1.20324" transform="rotate(120 23.6028 20.0114)" fill="white"/>
</clipPath>
<clipPath id="clip10_1_78">
<rect x="33.8304" y="2.29669" width="4.81298" height="2.40649" rx="1.20324" transform="rotate(120 33.8304 2.29669)" fill="white"/>
</clipPath>
<clipPath id="clip11_1_78">
<rect x="20.2997" y="17.5888" width="4.81298" height="2.40649" rx="1.20324" transform="rotate(150 20.2997 17.5888)" fill="white"/>
</clipPath>
<clipPath id="clip12_1_78">
<rect x="38.0144" y="7.36127" width="4.81298" height="2.40649" rx="1.20324" transform="rotate(150 38.0144 7.36127)" fill="white"/>
</clipPath>
</defs>
</svg>
